<?xml version="1.0" encoding="iso-8859-1"?>
<!-- Generator: Adobe Illustrator 19.0.0, SVG Export Plug-In . SVG Version: 6.00 Build 0)  -->
<svg version="1.1" id="Capa_1" xmlns="http://www.w3.org/2000/svg" xmlns:xlink="http://www.w3.org/1999/xlink" x="0px" y="0px"
	 viewBox="0 0 512 512" style="enable-background:new 0 0 512 512;" xml:space="preserve">
<g>
	<g>
		<path d="M480,127.989h-36.448L415.2,42.933c-2.72-8.096-11.296-12.608-19.584-10.336L61.728,127.989H32c-17.664,0-32,14.368-32,32
			v288c0,17.632,14.336,32,32,32h448c17.664,0,32-14.368,32-32v-288C512,142.357,497.664,127.989,480,127.989z M389.664,67.573
			l20.128,60.416h-231.52L389.664,67.573z M32,159.989h448v64H32V159.989z M480,463.989v-16H32v-192h448v192h0.032L480,463.989z"/>
	</g>
</g>
<g>
	<g>
		<path d="M432,319.989H80c-8.832,0-16,7.168-16,16v64c0,8.832,7.168,16,16,16h352c8.832,0,16-7.168,16-16v-64
			C448,327.157,440.832,319.989,432,319.989z M416,383.989H96v-32h320V383.989z"/>
	</g>
</g>
<g>
</g>
<g>
</g>
<g>
</g>
<g>
</g>
<g>
</g>
<g>
</g>
<g>
</g>
<g>
</g>
<g>
</g>
<g>
</g>
<g>
</g>
<g>
</g>
<g>
</g>
<g>
</g>
<g>
</g>
</svg>
